<svg xmlns="http://www.w3.org/2000/svg" viewBox="0 0 64 64" role="img" aria-label="GO">
  <rect width="64" height="64" rx="14" fill="#06090e"/>
  <path d="M36 16h-9.5C17.4 16 10 23.4 10 32.5S17.4 49 26.5 49H36V36.5H25.5v-8H45V49H26.5C12.9 49 4 40 4 32.5S12.9 16 26.5 16H36Z" fill="#00E676"/>
  <path d="M39.5 16H48c7 0 12 5.1 12 12.3v8.4C60 43.9 55 49 48 49h-8.5V36.5H48c2 0 3.5-1.5 3.5-3.6v-1.8c0-2.1-1.5-3.6-3.5-3.6h-8.5Z" fill="#00B0FF"/>
  <circle cx="48" cy="32" r="4.5" fill="#06090e"/>
</svg>
